<svg width="535" height="128" viewBox="0 0 535 128" fill="none" xmlns="http://www.w3.org/2000/svg">
<path d="M48.7067 16.5402C58.6367 16.5402 66.6304 19.5204 72.6877 25.4808C78.8443 31.4412 81.9226 40.2825 81.9226 52.0047V97.8999H58.6864V55.5809C58.6864 49.2231 57.2962 44.5045 54.5158 41.4249C51.7354 38.246 47.7137 36.6566 42.4508 36.6566C36.5921 36.6566 31.925 38.4944 28.4495 42.17C24.974 45.7462 23.2362 51.1106 23.2362 58.2631V97.8999H0V17.7322H22.1936V27.1199C25.2719 23.7423 29.0949 21.1595 33.6627 19.3714C38.2306 17.4839 43.2452 16.5402 48.7067 16.5402Z" fill="#F8FFE0"/>
<path d="M102.985 17.7322H126.221V97.8999H102.985V17.7322Z" fill="#F8FFE0"/>
<path d="M186.514 99.092C177.974 99.092 170.278 97.3535 163.426 93.8766C156.674 90.3003 151.361 85.383 147.489 79.1246C143.715 72.8661 141.829 65.7633 141.829 57.8161C141.829 49.8688 143.715 42.766 147.489 36.5076C151.361 30.2491 156.674 25.3814 163.426 21.9045C170.278 18.3283 177.974 16.5402 186.514 16.5402C194.954 16.5402 202.302 18.3283 208.558 21.9045C214.913 25.3814 219.531 30.3981 222.411 36.9546L204.388 46.6403C200.217 39.2891 194.209 35.6135 186.365 35.6135C180.307 35.6135 175.293 37.6003 171.321 41.5739C167.349 45.5475 165.363 50.9616 165.363 57.8161C165.363 64.6705 167.349 70.0846 171.321 74.0582C175.293 78.0318 180.307 80.0186 186.365 80.0186C194.309 80.0186 200.316 76.343 204.388 68.9918L222.411 78.8265C219.531 85.1843 214.913 90.1513 208.558 93.7276C202.302 97.3038 194.954 99.092 186.514 99.092Z" fill="#F8FFE0"/>
<path d="M275.137 80.4657C279.307 80.4657 282.981 79.8696 286.159 78.6775C289.436 77.3861 292.464 75.3993 295.245 72.7171L307.608 86.1281C300.061 94.7707 289.039 99.092 274.541 99.092C265.504 99.092 257.511 97.3535 250.56 93.8766C243.609 90.3003 238.247 85.383 234.473 79.1246C230.7 72.8661 228.813 65.7633 228.813 57.8161C228.813 49.9682 230.65 42.915 234.324 36.6566C238.098 30.2988 243.212 25.3814 249.666 21.9045C256.22 18.3283 263.568 16.5402 271.711 16.5402C279.357 16.5402 286.308 18.1793 292.564 21.4575C298.82 24.6364 303.785 29.3054 307.459 35.4645C311.232 41.5243 313.119 48.7264 313.119 57.071L253.837 68.5448C255.525 72.5184 258.156 75.4986 261.731 77.4854C265.405 79.4722 269.874 80.4657 275.137 80.4657ZM271.711 34.1234C265.852 34.1234 261.086 36.0109 257.412 39.7858C253.737 43.5607 251.801 48.7761 251.602 55.4319L290.627 47.8324C289.535 43.6601 287.301 40.3322 283.925 37.8487C280.548 35.3651 276.477 34.1234 271.711 34.1234Z" fill="#F8FFE0"/>
<path d="M376.998 94.0256C374.714 95.7144 371.884 97.0058 368.507 97.8999C365.231 98.6946 361.805 99.092 358.23 99.092C348.598 99.092 341.2 96.6581 336.036 91.7905C330.873 86.9228 328.291 79.7703 328.291 70.3329V0H351.527V19.5204H371.337V37.4016H351.527V70.0349C351.527 73.4125 352.371 76.045 354.059 77.9325C355.747 79.7206 358.18 80.6147 361.358 80.6147C364.933 80.6147 368.11 79.6213 370.891 77.6344L376.998 94.0256Z" fill="#F8FFE0"/>
<path d="M412.315 28.312C415.095 24.4377 418.819 21.5072 423.486 19.5204C428.253 17.5336 433.714 16.5402 439.871 16.5402V37.9977C437.289 37.799 435.551 37.6996 434.658 37.6996C428.005 37.6996 422.791 39.5871 419.018 43.362C415.244 47.0376 413.358 52.6007 413.358 60.0512V97.8999H390.122V17.7322H412.315V28.312Z" fill="#F8FFE0"/>
<path d="M535 17.7322V84.4889C535 99.1913 531.276 110.119 523.829 117.271C516.381 124.424 505.558 128 491.358 128C483.811 128 476.661 127.056 469.909 125.169C463.256 123.281 457.645 120.549 453.077 116.973L462.312 100.284C465.689 103.066 469.809 105.251 474.675 106.841C479.541 108.43 484.456 109.225 489.421 109.225C497.167 109.225 502.827 107.437 506.402 103.86C509.976 100.284 511.764 94.8203 511.764 87.4691V84.787C508.785 87.7672 505.26 90.052 501.188 91.6414C497.117 93.2309 492.748 94.0256 488.081 94.0256C477.555 94.0256 469.214 91.0454 463.057 85.085C456.9 79.0252 453.822 69.9853 453.822 57.9651V17.7322H477.058V54.5378C477.058 67.5514 482.47 74.0582 493.294 74.0582C498.855 74.0582 503.323 72.2701 506.699 68.6938C510.076 65.0182 511.764 59.6042 511.764 52.4517V17.7322H535Z" fill="#F8FFE0"/>
</svg>
