<svg width="454" height="230" viewBox="0 0 454 230" fill="none" xmlns="http://www.w3.org/2000/svg">
<path d="M-1016 226.5C-1016.83 226.5 -1017.5 227.172 -1017.5 228C-1017.5 228.828 -1016.83 229.5 -1016 229.5V228V226.5ZM438 8C438 12.4183 441.582 16 446 16C450.418 16 454 12.4183 454 8C454 3.58172 450.418 0 446 0C441.582 0 438 3.58172 438 8ZM-1016 228V229.5H237.354V228V226.5H-1016V228ZM261.354 204H262.854V32H261.354H259.854V204H261.354ZM285.354 8V9.5H446V8V6.5H285.354V8ZM261.354 32H262.854C262.854 19.5736 272.928 9.5 285.354 9.5V8V6.5C271.271 6.5 259.854 17.9167 259.854 32H261.354ZM237.354 228V229.5C251.438 229.5 262.854 218.083 262.854 204H261.354H259.854C259.854 216.426 249.781 226.5 237.354 226.5V228Z" fill="#F8FFE0"/>
</svg>
