<svg width="92" height="89" viewBox="0 0 92 89" fill="none" xmlns="http://www.w3.org/2000/svg">
<g clip-path="url(#clip0_49_4094)">
<path d="M85.4291 85.1136L65.7378 79.2505L50.8884 88.1275L40.5273 88.123L25.6689 79.2505L5.98664 85.1136L0 64.9021L5.98728 42.4705L0 23.5055L5.98728 0L36.7421 18.3746H54.6736L85.4291 0L91.4163 23.5055L85.4291 42.4705L91.4163 64.9021L85.4291 85.1136Z" fill="#FF5C16"/>
<path d="M5.99182 0L36.7472 18.3874L35.5245 31.0065L5.99182 0ZM25.6747 64.9104L39.2068 75.2187L25.6747 79.2499V64.9104ZM38.1251 47.868L35.5245 31.0155L18.8768 42.4757L18.8678 42.4711V42.4795L18.9193 54.2757L25.6702 47.8686L38.1251 47.868ZM85.4297 0L54.6743 18.3874L55.8932 31.0065L85.4297 0ZM65.7475 64.9104L52.2148 75.2187L65.7475 79.2499V64.9104ZM72.5499 42.4789V42.4705L72.546 42.475L55.8977 31.0155L53.2971 47.868H65.7468L72.5022 54.2744L72.5499 42.4789Z" fill="#FF5C16"/>
<path d="M25.6695 79.2499L5.98728 85.1129L0 64.9105H25.6695V79.2499ZM38.1199 47.8635L41.8794 72.2273L36.6687 58.6804L18.9103 54.2745L25.665 47.8642L38.1199 47.8635ZM65.7462 79.2499L85.4291 85.1129L91.4163 64.9098H65.7462C65.7462 64.9105 65.7462 79.2499 65.7462 79.2499ZM53.2964 47.8635L49.5369 72.2273L54.747 58.6804L72.5067 54.2745L65.7474 47.8642L53.2964 47.8635Z" fill="#E34807"/>
<path d="M0 64.9022L5.98728 42.4707H18.8626L18.9096 54.2708L36.6699 58.6767L41.8801 72.223L39.2016 75.206L25.6695 64.8977H0V64.9022ZM91.4163 64.9022L85.4291 42.4707H72.5531L72.5061 54.2708L54.747 58.6767L49.5363 72.223L52.2141 75.206L65.7468 64.8977H91.4163V64.9022ZM54.6736 18.3748H36.7421L35.5245 30.9938L41.8807 72.2094H49.5369L55.897 30.9938L54.6736 18.3748Z" fill="#FF8D5D"/>
<path d="M5.98728 0L0 23.5055L5.98728 42.4705H18.8626L35.5194 31.0072L5.98728 0ZM34.399 52.7569H28.5663L25.3907 55.8699L36.6738 58.6669L34.399 52.7524V52.7569ZM85.4291 0L91.4163 23.5055L85.4291 42.4705H72.5531L55.897 31.0072L85.4291 0ZM57.0257 52.7569H62.8668L66.0423 55.8738L54.7464 58.6765L57.0257 52.7524V52.7569ZM50.8839 80.0869L52.2147 75.2148L49.5363 72.2318H41.8743L39.1965 75.2148L40.5267 80.0869" fill="#661800"/>
<path d="M50.884 80.0862V88.1312H40.5281V80.0862H50.884Z" fill="#C0C4CD"/>
<path d="M25.6746 79.2416L40.5369 88.1269V80.0818L39.206 75.2103L25.6746 79.2416ZM65.7474 79.2416L50.8844 88.1269V80.0818L52.2153 75.2103L65.7474 79.2416Z" fill="#F6E7E7"/>
</g>
<defs>
<clipPath id="clip0_49_4094">
<rect width="91.4286" height="88.1307" fill="white"/>
</clipPath>
</defs>
</svg>
