<svg width="64" height="64" viewBox="0 0 64 64" fill="none" xmlns="http://www.w3.org/2000/svg">
<path d="M15.9 9C14.07 9 12.315 9.72696 11.021 11.021C9.72696 12.315 9 14.07 9 15.9V55H48.1C49.93 55 51.685 54.273 52.979 52.979C54.273 51.685 55 49.93 55 48.1V25.1C55 23.27 54.273 21.515 52.979 20.221C51.685 18.927 49.93 18.2 48.1 18.2H15.9C15.29 18.2 14.705 17.9577 14.2737 17.5263C13.8423 17.095 13.6 16.51 13.6 15.9C13.6 15.29 13.8423 14.705 14.2737 14.2737C14.705 13.8423 15.29 13.6 15.9 13.6H50.4V9H15.9ZM45.8 38.9H38.9V34.3H45.8V38.9Z" fill="#F8FFE0"/>
</svg>
